<?xml version="1.0" encoding="iso-8859-1"?>
<!-- Generator: Adobe Illustrator 16.0.0, SVG Export Plug-In . SVG Version: 6.00 Build 0)  -->
<!DOCTYPE svg PUBLIC "-//W3C//DTD SVG 1.1//EN" "http://www.w3.org/Graphics/SVG/1.1/DTD/svg11.dtd">
<svg version="1.1" id="Capa_1" xmlns="http://www.w3.org/2000/svg" xmlns:xlink="http://www.w3.org/1999/xlink" x="0px" y="0px"
	 width="410.121px" height="410.121px" viewBox="0 0 410.121 410.121" style="enable-background:new 0 0 410.121 410.121;"
	 xml:space="preserve">
<g>
	<g>
		<path d="M319.228,116.471c-2.277-0.59-6.785-1.715-6.785-1.715l-0.012-50.163c0-10.677-8.771-20.485-24.299-24.461
			c-14.918-3.819-26.834-7.109-49.414-8.599c3.793-3.295,6.203-8.142,6.203-13.562C244.921,8.047,236.874,0,226.947,0
			c-9.924,0-17.971,8.046-17.971,17.971c0,4.952,2.004,9.433,5.242,12.684h-18.314c3.238-3.251,5.242-7.732,5.242-12.684
			C201.146,8.047,193.102,0,183.175,0c-9.926,0-17.971,8.046-17.971,17.971c0,5.419,2.408,10.267,6.203,13.562
			c-22.582,1.49-34.496,4.78-49.414,8.599c-15.527,3.976-24.299,13.784-24.299,24.461l-0.014,50.163c0,0-4.508,1.125-6.783,1.715
			c-5.418,1.405-9.199,6.293-9.199,11.889v151.906c0,6.783,5.498,12.281,12.281,12.281h222.162c6.783,0,12.281-5.499,12.281-12.281
			V128.359C328.425,122.764,324.644,117.875,319.228,116.471z M125.955,68.351c20.594-5.1,41.52-8.215,62.33-9.282v39.196
			c-20.803,1.036-41.721,4.061-62.33,9.012V68.351z M205.472,177.957h-0.818c-14.5,0-26.297-11.797-26.297-26.3
			c0-14.501,11.797-26.299,26.297-26.299h0.818c14.502,0,26.299,11.798,26.299,26.299
			C231.771,166.16,219.974,177.957,205.472,177.957z M284.171,107.277c-20.607-4.952-41.527-7.976-62.33-9.012V59.069
			c20.811,1.067,41.735,4.182,62.33,9.282V107.277L284.171,107.277z"/>
		<path d="M232.228,350.645h-27.164h-27.166l-7.121,20.02c11.303,0.963,22.605,1.457,33.877,1.457h0.818
			c11.271,0,22.576-0.494,33.877-1.457L232.228,350.645z"/>
		<path d="M316.267,348.188v-31.004c0-6.113-4.955-11.066-11.066-11.066H104.924c-6.111,0-11.066,4.955-11.066,11.066v31.004
			c0,5.041,3.41,9.447,8.289,10.711c3.113,0.807,6.236,1.568,9.359,2.301L98.068,391.66c-2.932,6.645,0.076,14.408,6.721,17.338
			c1.727,0.762,3.529,1.123,5.303,1.123c5.051,0,9.867-2.928,12.037-7.846l15.777-35.766c3.795,0.635,7.594,1.219,11.395,1.748
			l11.262-31.658c1.49-4.194,5.461-6.994,9.91-6.994h69.178c4.451,0,8.42,2.8,9.912,6.994l11.26,31.658
			c3.801-0.529,7.601-1.113,11.396-1.748l15.776,35.766c2.17,4.918,6.986,7.846,12.039,7.846c1.771,0,3.574-0.361,5.302-1.123
			c6.645-2.932,9.651-10.693,6.723-17.338l-13.438-30.461c3.123-0.732,6.244-1.494,9.357-2.301
			C312.856,357.635,316.267,353.229,316.267,348.188z"/>
	</g>
</g>
<g>
</g>
<g>
</g>
<g>
</g>
<g>
</g>
<g>
</g>
<g>
</g>
<g>
</g>
<g>
</g>
<g>
</g>
<g>
</g>
<g>
</g>
<g>
</g>
<g>
</g>
<g>
</g>
<g>
</g>
</svg>
